<svg width="246" height="328" viewBox="0 0 246 328" fill="none" xmlns="http://www.w3.org/2000/svg">
<path d="M65.4461 0.202006C69.9583 2.13055 73.0275 4.46213 76.5086 7.88951C85.966 16.6772 85.966 16.6772 97.6258 21.6473C99.7904 21.4946 101.42 20.9833 103.446 20.202C104.324 19.9184 105.202 19.6348 106.106 19.3426C113.037 16.8223 118.57 13.1685 124.423 8.80601C134.246 1.53992 143.253 -0.742077 155.446 0.202006C167.43 2.59328 175.975 7.62346 183.446 17.202C184.003 16.4389 184.56 15.6758 185.134 14.8895C187.984 11.5768 190.129 9.55379 194.556 8.88169C200.045 8.60535 203.234 9.4477 207.446 13.202C213.975 20.1102 217.171 27.9018 220.36 36.7333C222.253 41.8025 224.583 46.1367 227.509 50.702C233.053 59.5187 235.688 67.701 234.446 78.202C233.799 79.8763 233.134 81.544 232.446 83.202C232.446 84.192 232.446 85.182 232.446 86.202C234.419 87.5747 236.422 88.9063 238.446 90.202C240.94 93.9434 241.284 96.8751 240.446 101.202C237.857 107.124 232.601 109.303 226.884 111.577C222.79 113.159 218.764 114.392 214.446 115.202C214.47 116.449 214.47 116.449 214.494 117.721C214.545 120.847 214.583 123.972 214.611 127.098C214.633 129.099 214.671 131.101 214.71 133.102C214.766 140.5 214.31 146.355 211.446 153.202C212.766 153.202 214.086 153.202 215.446 153.202C216.027 157.111 216.596 161.021 217.155 164.933C217.439 166.902 217.732 168.871 218.024 170.839C219.129 178.614 220.05 186.339 219.446 194.202C217.783 195.865 215.664 195.562 213.384 195.765C212.076 195.88 212.076 195.88 210.741 195.999C209.984 196.066 209.226 196.133 208.446 196.202C208.472 196.994 208.497 197.787 208.523 198.603C208.688 208.071 207.841 217.188 206.585 226.56C206.261 228.999 205.961 231.441 205.663 233.884C203.794 248.503 201.038 262.941 192.446 275.202C191.63 276.423 190.817 277.646 190.005 278.87C161.9 320.877 161.9 320.877 138.446 327.202C129.013 328.334 120.986 327.312 112.446 323.202C111.555 322.778 110.665 322.354 109.747 321.917C94.9322 314.33 82.6437 302.721 71.118 290.886C69.729 289.487 68.2529 288.175 66.7586 286.889C57.3928 276.005 50.7077 252.601 51.4461 238.202C50.7243 238.118 50.0024 238.034 49.2586 237.948C42.4807 236.15 36.8124 229.525 33.3211 223.64C29.022 213.822 31.0557 202.503 33.7118 192.53C35.0434 186.495 35.1989 180.365 35.4461 174.202C36.7661 174.202 38.0861 174.202 39.4461 174.202C37.8898 170.408 36.3249 166.617 34.7586 162.827C34.3236 161.766 33.8885 160.705 33.4403 159.612C31.3821 154.642 29.2727 149.755 26.8172 144.968C24.5489 140.529 22.7913 136.044 21.1961 131.327C20.9409 130.595 20.6857 129.863 20.4227 129.108C18.5591 123.714 18.5591 123.714 17.9713 121.052C17.2425 118.485 15.9943 117.965 13.7586 116.577C6.11304 111.083 2.71121 103.137 0.914885 94.0809C-1.52972 73.8518 0.457596 53.3796 12.6219 36.5184C14.3167 34.3664 16.113 32.4257 18.0086 30.452C19.5037 28.8786 19.5037 28.8786 20.4461 27.202C19.9585 23.9888 19.9585 23.9888 18.4461 21.202C18.4461 19.882 18.4461 18.562 18.4461 17.202C19.147 17.223 19.8478 17.2439 20.5699 17.2655C23.7577 17.3488 26.9452 17.4007 30.1336 17.452C31.2364 17.4855 32.3392 17.519 33.4754 17.5536C39.739 17.7021 39.739 17.7021 45.4618 15.5028C47.5451 13.0873 49.5802 10.6814 51.5086 8.13951C55.6137 2.73382 58.2995 -0.655594 65.4461 0.202006Z" fill="#020202"/>
<path d="M65.4461 0.202006C69.9583 2.13055 73.0275 4.46213 76.5086 7.88951C85.966 16.6772 85.966 16.6772 97.6258 21.6473C99.7904 21.4946 101.42 20.9833 103.446 20.202C104.324 19.9184 105.202 19.6348 106.106 19.3426C113.037 16.8223 118.57 13.1685 124.423 8.80601C134.246 1.53992 143.253 -0.742077 155.446 0.202006C167.43 2.59328 175.975 7.62346 183.446 17.202C184.003 16.4389 184.56 15.6758 185.134 14.8895C187.984 11.5768 190.129 9.55379 194.556 8.88169C200.045 8.60535 203.234 9.4477 207.446 13.202C213.975 20.1102 217.171 27.9018 220.36 36.7333C222.253 41.8025 224.583 46.1367 227.509 50.702C233.053 59.5187 235.688 67.701 234.446 78.202C233.799 79.8763 233.134 81.544 232.446 83.202C232.446 84.192 232.446 85.182 232.446 86.202C234.419 87.5747 236.422 88.9063 238.446 90.202C240.94 93.9434 241.284 96.8751 240.446 101.202C237.857 107.124 232.601 109.303 226.884 111.577C222.79 113.159 218.764 114.392 214.446 115.202C214.47 116.449 214.47 116.449 214.494 117.721C214.545 120.847 214.583 123.972 214.611 127.098C214.633 129.099 214.671 131.101 214.71 133.102C214.766 140.5 214.31 146.355 211.446 153.202C212.766 153.202 214.086 153.202 215.446 153.202C216.027 157.111 216.596 161.021 217.155 164.933C217.439 166.902 217.732 168.871 218.024 170.839C219.129 178.614 220.05 186.339 219.446 194.202C217.783 195.865 215.664 195.562 213.384 195.765C212.076 195.88 212.076 195.88 210.741 195.999C209.984 196.066 209.226 196.133 208.446 196.202C208.472 196.994 208.497 197.787 208.523 198.603C208.688 208.071 207.841 217.188 206.585 226.56C206.261 228.999 205.961 231.441 205.663 233.884C203.794 248.503 201.038 262.941 192.446 275.202C191.63 276.423 190.817 277.646 190.005 278.87C161.9 320.877 161.9 320.877 138.446 327.202C129.013 328.334 120.986 327.312 112.446 323.202C111.555 322.778 110.665 322.354 109.747 321.917C94.9322 314.33 82.6437 302.721 71.118 290.886C69.729 289.487 68.2529 288.175 66.7586 286.889C57.3928 276.005 50.7077 252.601 51.4461 238.202C50.7243 238.118 50.0024 238.034 49.2586 237.948C42.4807 236.15 36.8124 229.525 33.3211 223.64C29.022 213.822 31.0557 202.503 33.7118 192.53C35.0434 186.495 35.1989 180.365 35.4461 174.202C36.7661 174.202 38.0861 174.202 39.4461 174.202C37.8898 170.408 36.3249 166.617 34.7586 162.827C34.3236 161.766 33.8885 160.705 33.4403 159.612C31.3821 154.642 29.2727 149.755 26.8172 144.968C24.5489 140.529 22.7913 136.044 21.1961 131.327C20.9409 130.595 20.6857 129.863 20.4227 129.108C18.5591 123.714 18.5591 123.714 17.9713 121.052C17.2425 118.485 15.9943 117.965 13.7586 116.577C6.11304 111.083 2.71121 103.137 0.914885 94.0809C-1.52972 73.8518 0.457596 53.3796 12.6219 36.5184C14.3167 34.3664 16.113 32.4257 18.0086 30.452C19.5037 28.8786 19.5037 28.8786 20.4461 27.202C19.9585 23.9888 19.9585 23.9888 18.4461 21.202C18.4461 19.882 18.4461 18.562 18.4461 17.202C19.147 17.223 19.8478 17.2439 20.5699 17.2655C23.7577 17.3488 26.9452 17.4007 30.1336 17.452C31.2364 17.4855 32.3392 17.519 33.4754 17.5536C39.739 17.7021 39.739 17.7021 45.4618 15.5028C47.5451 13.0873 49.5802 10.6814 51.5086 8.13951C55.6137 2.73382 58.2995 -0.655594 65.4461 0.202006ZM57.4461 7.20201C55.6136 9.46198 53.8678 11.7628 52.1571 14.1161C49.3628 17.5228 47.7304 19.0706 43.2391 19.5301C42.0493 19.5044 40.8595 19.4786 39.6336 19.452C38.3974 19.4262 37.1612 19.4004 35.8875 19.3739C32.3268 19.196 28.9444 18.8683 25.4461 18.202C24.2714 21.3345 24.5529 22.6748 25.3211 26.077C25.6219 28.2176 25.6219 28.2176 25.4461 30.202C22.5086 32.827 22.5086 32.827 20.5555 34.2762C9.63401 44.2472 6.12068 61.8516 5.20785 75.8583C4.97224 88.0607 6.07489 101.55 14.4461 111.202C17.2112 113.919 19.9637 116.461 23.4461 118.202C23.9515 120.169 23.9515 120.169 24.3446 122.698C25.2976 127.908 26.9402 132.433 29.0711 137.265C29.5936 138.482 29.5936 138.482 30.1266 139.723C32.8461 146 35.8012 152.154 38.7787 158.311C41.3708 163.781 43.2147 169.263 44.4461 175.202C43.1261 175.532 41.8061 175.862 40.4461 176.202C40.7761 176.862 41.1061 177.522 41.4461 178.202C57.7796 176.203 74.113 174.203 90.4461 172.202C91.6503 172.054 92.8545 171.907 94.0952 171.755C124.758 167.997 155.419 164.231 186.071 160.39C186.746 160.305 187.42 160.22 188.115 160.133C195.893 159.159 203.67 158.182 211.446 157.202C211.501 157.765 211.556 158.327 211.612 158.907C211.865 161.5 212.12 164.093 212.376 166.686C212.462 167.571 212.548 168.456 212.636 169.368C213.36 176.682 214.316 183.938 215.446 191.202C214.145 191.241 214.145 191.241 212.817 191.28C202.364 191.737 192.09 192.954 181.723 194.342C167.482 196.239 153.215 197.902 138.946 199.577C118.196 202.016 97.4613 204.551 76.743 207.248C65.655 208.689 54.5628 209.999 43.4461 211.202C42.7861 204.272 42.1261 197.342 41.4461 190.202C40.7861 190.202 40.1261 190.202 39.4461 190.202C37.8248 198.68 39.3338 205.92 41.4461 214.202C42.4361 214.202 43.4261 214.202 44.4461 214.202C44.2605 216.151 44.2605 216.151 44.0711 218.14C44.0428 224.128 46.9437 227.594 50.4461 232.202C51.461 233.86 52.4702 235.521 53.4461 237.202C54.1061 236.542 54.7661 235.882 55.4461 235.202C55.1732 232.721 54.7907 230.441 54.2586 228.015C53.997 226.722 53.7353 225.429 53.4657 224.097C52.555 220.237 51.1025 216.799 49.4461 213.202C50.2962 213.223 51.1462 213.244 52.0221 213.265C67.7701 213.602 82.2176 213.723 97.4461 209.202C105.133 207.369 112.955 206.386 120.786 205.397C122.811 205.141 124.836 204.878 126.86 204.614C134.709 203.604 142.553 202.775 150.446 202.202C150.446 202.862 150.446 203.522 150.446 204.202C151.015 204.022 151.583 203.841 152.169 203.655C157.123 202.669 162.157 204.518 166.509 206.827C167.148 207.281 167.787 207.735 168.446 208.202C168.446 207.542 168.446 206.882 168.446 206.202C169.066 206.346 169.686 206.491 170.325 206.64C180.941 208.865 192.507 210.269 202.446 205.202C204.844 202.804 204.789 201.869 205.071 198.577C205.257 196.411 205.257 196.411 205.446 194.202C209.736 193.872 214.026 193.542 218.446 193.202C217.682 185.381 216.836 177.572 215.946 169.765C215.816 168.595 215.686 167.425 215.552 166.22C215.36 164.542 215.36 164.542 215.165 162.831C214.994 161.316 214.994 161.316 214.819 159.771C214.507 157.091 214.507 157.091 213.446 154.202C212.126 154.202 210.806 154.202 209.446 154.202C209.655 153.661 209.863 153.121 210.078 152.564C212.814 144.654 212.997 136.851 213.134 128.577C213.167 127.177 213.201 125.777 213.237 124.378C213.319 120.986 213.388 117.594 213.446 114.202C213.99 114.021 214.534 113.841 215.095 113.655C217.594 112.814 220.082 111.946 222.571 111.077C223.427 110.793 224.283 110.51 225.165 110.218C230.973 108.162 234.537 106.013 238.446 101.202C239.183 96.9995 238.991 95.0902 236.759 91.452C234.462 89.217 232.273 87.6939 229.446 86.202C229.756 85.4389 230.065 84.6758 230.384 83.8895C233.796 75.2586 233.151 67.4467 229.72 58.8934C228.016 55.2925 225.996 51.9547 223.884 48.5809C221.031 43.8609 219.03 38.8422 217.184 33.6551C214.103 25.1242 210.724 18.0623 203.446 12.202C199.992 10.3016 199.992 10.3016 196.446 11.202C192.32 13.9501 189.191 17.0851 186.446 21.202C185.456 20.212 185.456 20.212 184.446 19.202C183.456 19.862 182.466 20.522 181.446 21.202C181.415 20.1811 181.415 20.1811 181.384 19.1395C179.397 12.9142 174.116 9.32312 168.509 6.38951C159.919 2.44514 151.248 0.577975 142.009 3.32701C135.215 5.84793 129.197 9.74484 123.571 14.2645C115.471 20.4042 106.927 23.1792 96.7586 22.7333C87.9561 21.3215 81.8692 15.1089 75.7308 9.07383C68.8349 2.3799 64.4515 0.260508 57.4461 7.20201Z" fill="url(#paint0_linear_436_147)"/>
<path d="M65.4461 0.202006C69.9583 2.13055 73.0275 4.46213 76.5086 7.88951C85.966 16.6772 85.966 16.6772 97.6258 21.6473C99.7904 21.4946 101.42 20.9833 103.446 20.202C104.324 19.9184 105.202 19.6348 106.106 19.3426C113.037 16.8223 118.57 13.1685 124.423 8.80601C134.246 1.53992 143.253 -0.742077 155.446 0.202006C167.43 2.59328 175.975 7.62346 183.446 17.202C184.003 16.4389 184.56 15.6758 185.134 14.8895C187.984 11.5768 190.129 9.55379 194.556 8.88169C200.045 8.60535 203.234 9.4477 207.446 13.202C213.975 20.1102 217.171 27.9018 220.36 36.7333C222.253 41.8025 224.583 46.1367 227.509 50.702C233.053 59.5187 235.688 67.701 234.446 78.202C233.799 79.8763 233.134 81.544 232.446 83.202C232.446 84.192 232.446 85.182 232.446 86.202C234.419 87.5747 236.422 88.9063 238.446 90.202C240.94 93.9434 241.284 96.8751 240.446 101.202C237.857 107.124 232.601 109.303 226.884 111.577C222.79 113.159 218.764 114.392 214.446 115.202C214.47 116.449 214.47 116.449 214.494 117.721C214.545 120.847 214.583 123.972 214.611 127.098C214.633 129.099 214.671 131.101 214.71 133.102C214.766 140.5 214.31 146.355 211.446 153.202C212.766 153.202 214.086 153.202 215.446 153.202C216.027 157.111 216.596 161.021 217.155 164.933C217.439 166.902 217.732 168.871 218.024 170.839C219.129 178.614 220.05 186.339 219.446 194.202C217.783 195.865 215.664 195.562 213.384 195.765C212.076 195.88 212.076 195.88 210.741 195.999C209.984 196.066 209.226 196.133 208.446 196.202C208.472 196.994 208.497 197.787 208.523 198.603C208.688 208.071 207.841 217.188 206.585 226.56C206.261 228.999 205.961 231.441 205.663 233.884C203.794 248.503 201.038 262.941 192.446 275.202C191.63 276.423 190.817 277.646 190.005 278.87C161.9 320.877 161.9 320.877 138.446 327.202C129.013 328.334 120.986 327.312 112.446 323.202C111.555 322.778 110.665 322.354 109.747 321.917C94.9322 314.33 82.6437 302.721 71.118 290.886C69.729 289.487 68.2529 288.175 66.7586 286.889C57.3928 276.005 50.7077 252.601 51.4461 238.202C50.7243 238.118 50.0024 238.034 49.2586 237.948C42.4807 236.15 36.8124 229.525 33.3211 223.64C29.022 213.822 31.0557 202.503 33.7118 192.53C35.0434 186.495 35.1989 180.365 35.4461 174.202C36.7661 174.202 38.0861 174.202 39.4461 174.202C37.8898 170.408 36.3249 166.617 34.7586 162.827C34.3236 161.766 33.8885 160.705 33.4403 159.612C31.3821 154.642 29.2727 149.755 26.8172 144.968C24.5489 140.529 22.7913 136.044 21.1961 131.327C20.9409 130.595 20.6857 129.863 20.4227 129.108C18.5591 123.714 18.5591 123.714 17.9713 121.052C17.2425 118.485 15.9943 117.965 13.7586 116.577C6.11304 111.083 2.71121 103.137 0.914885 94.0809C-1.52972 73.8518 0.457596 53.3796 12.6219 36.5184C14.3167 34.3664 16.113 32.4257 18.0086 30.452C19.5037 28.8786 19.5037 28.8786 20.4461 27.202C19.9585 23.9888 19.9585 23.9888 18.4461 21.202C18.4461 19.882 18.4461 18.562 18.4461 17.202C19.147 17.223 19.8478 17.2439 20.5699 17.2655C23.7577 17.3488 26.9452 17.4007 30.1336 17.452C31.2364 17.4855 32.3392 17.519 33.4754 17.5536C39.739 17.7021 39.739 17.7021 45.4618 15.5028C47.5451 13.0873 49.5802 10.6814 51.5086 8.13951C55.6137 2.73382 58.2995 -0.655594 65.4461 0.202006ZM57.4461 7.20201C55.6136 9.46198 53.8678 11.7628 52.1571 14.1161C49.3628 17.5228 47.7304 19.0706 43.2391 19.5301C42.0493 19.5044 40.8595 19.4786 39.6336 19.452C38.3974 19.4262 37.1612 19.4004 35.8875 19.3739C32.3268 19.196 28.9444 18.8683 25.4461 18.202C24.2714 21.3345 24.5529 22.6748 25.3211 26.077C25.6219 28.2176 25.6219 28.2176 25.4461 30.202C22.5086 32.827 22.5086 32.827 20.5555 34.2762C9.63401 44.2472 6.12068 61.8516 5.20785 75.8583C4.97224 88.0607 6.07489 101.55 14.4461 111.202C17.2112 113.919 19.9637 116.461 23.4461 118.202C23.9515 120.169 23.9515 120.169 24.3446 122.698C25.2976 127.908 26.9402 132.433 29.0711 137.265C29.5936 138.482 29.5936 138.482 30.1266 139.723C32.8461 146 35.8012 152.154 38.7787 158.311C41.3708 163.781 43.2147 169.263 44.4461 175.202C43.1261 175.532 41.8061 175.862 40.4461 176.202C40.7761 176.862 41.1061 177.522 41.4461 178.202C57.7796 176.203 74.113 174.203 90.4461 172.202C91.6503 172.054 92.8545 171.907 94.0952 171.755C124.758 167.997 155.419 164.231 186.071 160.39C186.746 160.305 187.42 160.22 188.115 160.133C195.893 159.159 203.67 158.182 211.446 157.202C211.501 157.765 211.556 158.327 211.612 158.907C211.865 161.5 212.12 164.093 212.376 166.686C212.462 167.571 212.548 168.456 212.636 169.368C213.36 176.682 214.316 183.938 215.446 191.202C214.145 191.241 214.145 191.241 212.817 191.28C202.364 191.737 192.09 192.954 181.723 194.342C167.482 196.239 153.215 197.902 138.946 199.577C118.196 202.016 97.4613 204.551 76.743 207.248C65.655 208.689 54.5628 209.999 43.4461 211.202C42.7861 204.272 42.1261 197.342 41.4461 190.202C40.7861 190.202 40.1261 190.202 39.4461 190.202C37.8248 198.68 39.3338 205.92 41.4461 214.202C42.4361 214.202 43.4261 214.202 44.4461 214.202C44.2605 216.151 44.2605 216.151 44.0711 218.14C44.0428 224.128 46.9437 227.594 50.4461 232.202C51.461 233.86 52.4702 235.521 53.4461 237.202C54.4361 236.872 55.4261 236.542 56.4461 236.202C56.4603 236.776 56.4745 237.349 56.4891 237.94C57.3986 254.139 62.4971 278.771 75.0086 290.014C76.2732 290.985 76.2732 290.985 77.5633 291.975C80.5055 294.248 83.0826 296.7 85.7362 299.295C98.1717 311.385 114.739 324.795 132.759 325.577C147.676 325.211 159.219 314.289 169.032 304.042C195.087 275.6 206.675 242.394 206.571 203.827C206.574 202.85 206.576 201.873 206.579 200.866C206.52 197.947 206.52 197.947 205.446 194.202C209.736 193.872 214.026 193.542 218.446 193.202C217.682 185.381 216.836 177.572 215.946 169.765C215.816 168.595 215.686 167.425 215.552 166.22C215.36 164.542 215.36 164.542 215.165 162.831C214.994 161.316 214.994 161.316 214.819 159.771C214.507 157.091 214.507 157.091 213.446 154.202C212.126 154.202 210.806 154.202 209.446 154.202C209.655 153.661 209.863 153.121 210.078 152.564C212.814 144.654 212.997 136.851 213.134 128.577C213.167 127.177 213.201 125.777 213.237 124.378C213.319 120.986 213.388 117.594 213.446 114.202C213.99 114.021 214.534 113.841 215.095 113.655C217.594 112.814 220.082 111.946 222.571 111.077C223.427 110.793 224.283 110.51 225.165 110.218C230.973 108.162 234.537 106.013 238.446 101.202C239.183 96.9995 238.991 95.0902 236.759 91.452C234.462 89.217 232.273 87.6939 229.446 86.202C229.756 85.4389 230.065 84.6758 230.384 83.8895C233.796 75.2586 233.151 67.4467 229.72 58.8934C228.016 55.2925 225.996 51.9547 223.884 48.5809C221.031 43.8609 219.03 38.8422 217.184 33.6551C214.103 25.1242 210.724 18.0623 203.446 12.202C199.992 10.3016 199.992 10.3016 196.446 11.202C192.32 13.9501 189.191 17.0851 186.446 21.202C185.456 20.212 185.456 20.212 184.446 19.202C183.456 19.862 182.466 20.522 181.446 21.202C181.415 20.1811 181.415 20.1811 181.384 19.1395C179.397 12.9142 174.116 9.32312 168.509 6.38951C159.919 2.44514 151.248 0.577975 142.009 3.32701C135.215 5.84793 129.197 9.74484 123.571 14.2645C115.471 20.4042 106.927 23.1792 96.7586 22.7333C87.9561 21.3215 81.8692 15.1089 75.7308 9.07383C68.8349 2.3799 64.4515 0.260508 57.4461 7.20201Z" fill="#FBFBFB"/>
<path d="M159.446 92.202C161.946 93.8895 161.946 93.8895 164.446 96.202C169.157 98.6753 173.784 100.902 179.036 101.85C183.237 103.515 183.918 104.934 185.703 108.912C186.01 109.668 186.317 110.423 186.634 111.202C187.14 112.369 187.14 112.369 187.656 113.56C188.318 115.095 188.968 116.635 189.606 118.18C190.259 119.75 190.953 121.302 191.665 122.847C194.193 128.504 195.662 134.466 197.196 140.452C197.42 141.317 197.643 142.181 197.873 143.072C198.974 147.545 199.72 151.557 199.446 156.202C198.126 155.872 196.806 155.542 195.446 155.202C195.364 154.583 195.281 153.964 195.196 153.327C194.644 151.119 194.644 151.119 192.884 150.077C186.116 147.647 179.964 146.845 172.821 146.889C171.516 146.891 171.516 146.891 170.185 146.893C163.579 146.991 157.602 147.883 151.196 149.546C148.446 150.202 148.446 150.202 144.446 150.202C144.446 154.492 144.446 158.782 144.446 163.202C134.051 164.192 134.051 164.192 123.446 165.202C123.941 163.717 123.941 163.717 124.446 162.202C102.744 158.841 83.4897 157.008 62.4463 164.202C62.2297 166.151 62.2297 166.151 62.0088 168.139C61.5713 172.077 61.5713 172.077 60.4463 173.202C58.4266 173.274 56.4046 173.286 54.3838 173.264C53.2791 173.255 52.1743 173.246 51.0361 173.237C50.1815 173.226 49.3268 173.214 48.4463 173.202C48.7785 166.067 50.2508 160.542 53.1963 154.077C57.0004 145.291 59.111 136.602 60.6348 127.16C61.3861 122.86 62.0128 119.836 64.501 116.198C68.4411 113.528 72.3101 112.399 76.8838 111.202C78.6986 110.702 80.5124 110.198 82.3252 109.69C83.2071 109.444 84.089 109.197 84.9976 108.943C88.2007 107.974 91.2384 106.686 94.3213 105.389C101.32 102.772 108.024 102.743 115.4 102.573C125.599 102.278 133.606 99.7892 142.571 94.952C148.244 91.9915 153.108 90.9514 159.446 92.202Z" fill="#FBBB7A"/>
<path d="M63.4463 2.20215C64.4363 2.69715 64.4363 2.69715 65.4463 3.20215C65.1163 3.86215 64.7863 4.52215 64.4463 5.20215C65.0289 5.42645 65.6116 5.65074 66.2119 5.88184C69.0932 7.58442 70.3298 9.55821 72.1963 12.3271C79.4582 22.6687 79.4582 22.6687 90.1494 28.8818C94.929 29.5484 99.6943 28.8595 104.446 28.2021C103.786 29.5221 103.126 30.8421 102.446 32.2021C103.171 31.8293 103.896 31.4564 104.643 31.0723C107.39 29.6639 110.142 28.2634 112.896 26.8677C114.65 25.9758 116.4 25.0754 118.149 24.1748C139.949 13.1512 139.949 13.1512 149.446 15.2021C157.359 18.0476 163.947 21.9578 168.446 29.2021C177.072 48.088 173.032 73.4805 169.446 93.2021C168.838 93.065 168.23 92.9279 167.603 92.7866C166.8 92.6066 165.996 92.4267 165.169 92.2412C164.375 92.0628 163.581 91.8845 162.763 91.7007C160.004 91.107 157.235 90.6312 154.446 90.2021C154.446 89.5421 154.446 88.8821 154.446 88.2021C153.414 88.4909 152.381 88.7796 151.317 89.0771C142.36 91.4151 133.713 92.6499 124.446 92.7646C123.505 92.7911 122.563 92.8175 121.593 92.8447C113.89 92.8067 107.017 90.7692 101.454 85.2119C92.8442 74.9439 87.4109 62.2882 82.2446 50.0571C81.1047 47.4083 79.8691 44.8076 78.6338 42.2021C73.8917 32.0239 69.6995 21.5919 65.4463 11.2021C65.0715 10.3507 64.6967 9.4993 64.3105 8.62207C63.4463 6.20215 63.4463 6.20215 63.4463 2.20215Z" fill="#1E1E1E"/>
<path d="M65.4461 0.202006C69.9583 2.13055 73.0275 4.46213 76.5086 7.88951C85.966 16.6772 85.966 16.6772 97.6258 21.6473C99.7904 21.4946 101.42 20.9833 103.446 20.202C104.324 19.9184 105.202 19.6348 106.106 19.3426C113.037 16.8223 118.57 13.1685 124.423 8.80601C134.246 1.53992 143.253 -0.742077 155.446 0.202006C167.43 2.59328 175.975 7.62346 183.446 17.202C184.003 16.4389 184.56 15.6758 185.134 14.8895C187.984 11.5768 190.129 9.55379 194.556 8.88169C200.045 8.60535 203.234 9.4477 207.446 13.202C213.975 20.1102 217.171 27.9018 220.36 36.7333C222.253 41.8025 224.583 46.1367 227.509 50.702C233.053 59.5187 235.688 67.701 234.446 78.202C233.799 79.8763 233.134 81.544 232.446 83.202C232.446 84.192 232.446 85.182 232.446 86.202C234.419 87.5747 236.422 88.9063 238.446 90.202C240.94 93.9434 241.284 96.8751 240.446 101.202C237.857 107.124 232.601 109.303 226.884 111.577C222.79 113.159 218.764 114.392 214.446 115.202C214.47 116.449 214.47 116.449 214.494 117.721C214.545 120.847 214.583 123.972 214.611 127.098C214.633 129.099 214.671 131.101 214.71 133.102C214.766 140.5 214.31 146.355 211.446 153.202C212.766 153.202 214.086 153.202 215.446 153.202C216.027 157.111 216.596 161.021 217.155 164.933C217.439 166.902 217.732 168.871 218.024 170.839C219.129 178.614 220.05 186.339 219.446 194.202C217.783 195.865 215.664 195.562 213.384 195.765C212.076 195.88 212.076 195.88 210.741 195.999C209.984 196.066 209.226 196.133 208.446 196.202C208.472 196.994 208.497 197.787 208.523 198.603C208.688 208.071 207.841 217.188 206.585 226.56C206.261 228.999 205.961 231.441 205.663 233.884C203.794 248.503 201.038 262.941 192.446 275.202C191.63 276.423 190.817 277.646 190.005 278.87C161.9 320.877 161.9 320.877 138.446 327.202C129.013 328.334 120.986 327.312 112.446 323.202C111.555 322.778 110.665 322.354 109.747 321.917C94.9322 314.33 82.6437 302.721 71.118 290.886C69.729 289.487 68.2529 288.175 66.7586 286.889C57.3928 276.005 50.7077 252.601 51.4461 238.202C50.7243 238.118 50.0024 238.034 49.2586 237.948C42.4807 236.15 36.8124 229.525 33.3211 223.64C29.022 213.822 31.0557 202.503 33.7118 192.53C35.0434 186.495 35.1989 180.365 35.4461 174.202C36.7661 174.202 38.0861 174.202 39.4461 174.202C37.8898 170.408 36.3249 166.617 34.7586 162.827C34.3236 161.766 33.8885 160.705 33.4403 159.612C31.3821 154.642 29.2727 149.755 26.8172 144.968C24.5489 140.529 22.7913 136.044 21.1961 131.327C20.9409 130.595 20.6857 129.863 20.4227 129.108C18.5591 123.714 18.5591 123.714 17.9713 121.052C17.2425 118.485 15.9943 117.965 13.7586 116.577C6.11304 111.083 2.71121 103.137 0.914885 94.0809C-1.52972 73.8518 0.457596 53.3796 12.6219 36.5184C14.3167 34.3664 16.113 32.4257 18.0086 30.452C19.5037 28.8786 19.5037 28.8786 20.4461 27.202C19.9585 23.9888 19.9585 23.9888 18.4461 21.202C18.4461 19.882 18.4461 18.562 18.4461 17.202C19.147 17.223 19.8478 17.2439 20.5699 17.2655C23.7577 17.3488 26.9452 17.4007 30.1336 17.452C31.2364 17.4855 32.3392 17.519 33.4754 17.5536C39.739 17.7021 39.739 17.7021 45.4618 15.5028C47.5451 13.0873 49.5802 10.6814 51.5086 8.13951C55.6137 2.73382 58.2995 -0.655594 65.4461 0.202006ZM57.4461 7.20201C55.6136 9.46198 53.8678 11.7628 52.1571 14.1161C49.3628 17.5228 47.7304 19.0706 43.2391 19.5301C42.0493 19.5044 40.8595 19.4786 39.6336 19.452C38.3974 19.4262 37.1612 19.4004 35.8875 19.3739C32.3268 19.196 28.9444 18.8683 25.4461 18.202C24.2714 21.3345 24.5529 22.6748 25.3211 26.077C25.6219 28.2176 25.6219 28.2176 25.4461 30.202C22.5086 32.827 22.5086 32.827 20.5555 34.2762C9.63401 44.2472 6.12068 61.8516 5.20785 75.8583C4.97224 88.0607 6.07489 101.55 14.4461 111.202C17.2112 113.919 19.9637 116.461 23.4461 118.202C23.9515 120.169 23.9515 120.169 24.3446 122.698C25.2976 127.908 26.9402 132.433 29.0711 137.265C29.5936 138.482 29.5936 138.482 30.1266 139.723C32.8461 146 35.8012 152.154 38.7787 158.311C41.3708 163.781 43.2147 169.263 44.4461 175.202C43.1261 175.532 41.8061 175.862 40.4461 176.202C40.9411 183.132 40.9411 183.132 41.4461 190.202C40.7861 190.202 40.1261 190.202 39.4461 190.202C37.8248 198.68 39.3338 205.92 41.4461 214.202C42.4361 214.202 43.4261 214.202 44.4461 214.202C44.2605 216.151 44.2605 216.151 44.0711 218.14C44.0428 224.128 46.9437 227.594 50.4461 232.202C51.461 233.86 52.4702 235.521 53.4461 237.202C54.4361 236.872 55.4261 236.542 56.4461 236.202C56.4603 236.776 56.4745 237.349 56.4891 237.94C57.3986 254.139 62.4971 278.771 75.0086 290.014C76.2732 290.985 76.2732 290.985 77.5633 291.975C80.5055 294.248 83.0826 296.7 85.7362 299.295C98.1717 311.385 114.739 324.795 132.759 325.577C147.676 325.211 159.219 314.289 169.032 304.042C195.087 275.6 206.675 242.394 206.571 203.827C206.574 202.85 206.576 201.873 206.579 200.866C206.52 197.947 206.52 197.947 205.446 194.202C209.736 193.872 214.026 193.542 218.446 193.202C217.682 185.381 216.836 177.572 215.946 169.765C215.816 168.595 215.686 167.425 215.552 166.22C215.36 164.542 215.36 164.542 215.165 162.831C214.994 161.316 214.994 161.316 214.819 159.771C214.507 157.091 214.507 157.091 213.446 154.202C212.126 154.202 210.806 154.202 209.446 154.202C209.655 153.661 209.863 153.121 210.078 152.564C212.814 144.654 212.997 136.851 213.134 128.577C213.167 127.177 213.201 125.777 213.237 124.378C213.319 120.986 213.388 117.594 213.446 114.202C213.99 114.021 214.534 113.841 215.095 113.655C217.594 112.814 220.082 111.946 222.571 111.077C223.427 110.793 224.283 110.51 225.165 110.218C230.973 108.162 234.537 106.013 238.446 101.202C239.183 96.9995 238.991 95.0902 236.759 91.452C234.462 89.217 232.273 87.6939 229.446 86.202C229.756 85.4389 230.065 84.6758 230.384 83.8895C233.796 75.2586 233.151 67.4467 229.72 58.8934C228.016 55.2925 225.996 51.9547 223.884 48.5809C221.031 43.8609 219.03 38.8422 217.184 33.6551C214.103 25.1242 210.724 18.0623 203.446 12.202C199.992 10.3016 199.992 10.3016 196.446 11.202C192.32 13.9501 189.191 17.0851 186.446 21.202C185.456 20.212 185.456 20.212 184.446 19.202C183.456 19.862 182.466 20.522 181.446 21.202C181.415 20.1811 181.415 20.1811 181.384 19.1395C179.397 12.9142 174.116 9.32312 168.509 6.38951C159.919 2.44514 151.248 0.577975 142.009 3.32701C135.215 5.84793 129.197 9.74484 123.571 14.2645C115.471 20.4042 106.927 23.1792 96.7586 22.7333C87.9561 21.3215 81.8692 15.1089 75.7308 9.07383C68.8349 2.3799 64.4515 0.260508 57.4461 7.20201Z" fill="#D4CCE5"/>
<path d="M196.415 17.2409C200.438 18.5162 201.004 19.8662 202.946 23.5769C203.42 24.4597 203.42 24.4597 203.902 25.3603C205.108 27.6288 206.276 29.9151 207.446 32.2019C208.607 34.4329 209.768 36.6633 210.931 38.8933C213.953 44.6967 216.946 50.5149 219.933 56.3371C221.175 58.6888 222.48 60.9548 223.868 63.2214C226.693 68.5567 225.195 73.1161 223.825 78.7605C221.094 87.5561 215.688 94.7501 210.446 102.202C209.786 103.192 209.126 104.182 208.446 105.202C207.456 105.202 206.466 105.202 205.446 105.202C205.446 104.542 205.446 103.882 205.446 103.202C204.864 103.032 204.281 102.862 203.681 102.686C198.948 101.287 194.284 99.7926 189.634 98.1394C183.341 96.0035 177.027 95.0086 170.446 94.2019C171.905 89.693 173.41 85.2164 175.13 80.7995C182.328 62.2908 186.593 45.1291 183.446 25.2019C184.436 25.2019 185.426 25.2019 186.446 25.2019C186.116 24.5419 185.786 23.8819 185.446 23.2019C186.821 21.2019 186.821 21.2019 188.446 19.2019C189.106 19.2019 189.766 19.2019 190.446 19.2019C193.446 17.2019 193.446 17.2019 196.415 17.2409Z" fill="#181818"/>
<path d="M58.4463 6.20215C59.4363 6.20215 60.4263 6.20215 61.4463 6.20215C61.5611 7.09595 61.6759 7.98976 61.7942 8.91064C65.7989 49.6708 65.7989 49.6708 83.1572 85.499C85.4463 88.2021 85.4463 88.2021 85.4463 90.2021C85.9825 90.429 86.5188 90.6559 87.0713 90.8896C90.2494 92.646 92.7271 94.7919 95.4463 97.2021C95.4463 97.5321 95.4463 97.8621 95.4463 98.2021C85.494 100.072 74.7939 100.567 65.4463 96.2021C59.3804 91.9227 55.3721 86.7581 51.6963 80.3896C51.1953 79.5387 50.6944 78.6878 50.1782 77.811C41.7354 63.1104 35.0604 47.3692 28.5322 31.7412C27.499 29.2406 27.499 29.2406 26.3369 27.0537C25.1147 24.5128 24.8249 21.9789 24.4463 19.2021C27.7333 18.4026 29.1565 18.1056 32.4463 19.2021C40.7894 20.1143 40.7894 20.1143 48.7471 18.1084C51.7934 15.5687 53.9451 12.5686 56.1963 9.32715C56.9388 8.2959 57.6813 7.26465 58.4463 6.20215Z" fill="#181818"/>
<path d="M61.4465 117.202C60.1659 118.909 58.8288 120.576 57.4465 122.202C56.7865 122.202 56.1265 122.202 55.4465 122.202C55.3318 122.75 55.2171 123.298 55.0989 123.862C54.333 126.609 53.1949 129.046 52.009 131.639C47.0059 143.627 44.8924 160.437 48.4465 173.202C50.0243 172.954 50.0243 172.954 51.634 172.702C54.6512 172.306 57.4175 172.11 60.4465 172.202C60.4671 170.944 60.4878 169.686 60.509 168.389C60.8059 166.171 60.8059 166.171 61.4465 164.202C64.01 162.55 65.5742 161.954 68.4465 161.202C69.2367 160.926 70.0269 160.65 70.841 160.366C85.253 155.871 110.669 155.313 124.447 162.202C124.447 162.862 124.447 163.522 124.447 164.202C125.355 164.094 125.355 164.094 126.282 163.983C132.377 163.308 138.315 163.114 144.447 163.202C144.447 158.912 144.447 154.622 144.447 150.202C153.964 147.627 163.115 145.802 173.009 145.764C173.816 145.755 174.624 145.745 175.455 145.735C182.026 145.827 188.621 146.897 193.822 151.139C196.976 155.143 196.976 155.143 198.447 157.202C198.117 157.862 197.787 158.522 197.447 159.202C194.423 159.754 191.461 160.175 188.412 160.527C187.46 160.645 186.508 160.762 185.527 160.883C182.337 161.274 179.146 161.652 175.954 162.03C173.701 162.304 171.448 162.578 169.196 162.853C163.202 163.582 157.208 164.3 151.213 165.016C145.328 165.721 139.444 166.437 133.56 167.151C102.531 170.913 71.4903 174.569 40.4465 178.202C40.7765 177.212 41.1065 176.222 41.4465 175.202C42.4365 175.202 43.4265 175.202 44.4465 175.202C42.0119 165.23 37.864 156.213 33.5078 146.958C32.138 144.046 30.7852 141.128 29.4465 138.202C29.0392 137.317 28.6318 136.432 28.2121 135.52C25.8698 130.123 25.0107 126.085 25.4465 120.202C26.6673 120.165 27.888 120.127 29.1457 120.089C38.0435 119.754 46.2815 119.169 54.8801 116.725C57.5112 116.189 58.9448 116.315 61.4465 117.202Z" fill="#121111"/>
<path d="M172.946 9.07727C176.233 11.8274 178.962 14.7087 181.446 18.2023C181.446 19.1923 181.446 20.1823 181.446 21.2023C182.766 20.5423 184.086 19.8823 185.446 19.2023C185.756 20.151 186.065 21.0998 186.384 22.0773C187.32 25.0631 187.32 25.0631 188.446 27.2023C187.126 26.8723 185.806 26.5423 184.446 26.2023C184.604 27.0466 184.761 27.8909 184.923 28.7609C188.028 49.1734 181.795 72.0321 172.446 90.2023C170.83 91.9615 170.83 91.9615 169.446 93.2023C169.663 91.4156 169.663 91.4156 169.884 89.5929C171.085 78.9422 171.684 68.359 171.759 57.6398C171.776 56.4883 171.794 55.3369 171.812 54.1505C171.806 44.024 170.613 33.535 164.446 25.2023C159.052 20.2317 152.858 16.2263 145.384 15.7023C133.431 16.2419 122.118 23.1844 111.735 28.5433C110.82 29.0147 109.905 29.4861 108.962 29.9718C107.729 30.6153 107.729 30.6153 106.471 31.2719C104.446 32.2023 104.446 32.2023 102.446 32.2023C102.941 30.7173 102.941 30.7173 103.446 29.2023C102.757 29.3209 102.067 29.4395 101.356 29.5616C94.3062 30.5288 89.3914 30.2927 83.4463 26.2023C77.2063 20.9237 72.2604 14.976 67.8213 8.13586C66.584 6.0754 66.584 6.0754 64.4463 5.20227C64.4463 4.54227 64.4463 3.88227 64.4463 3.20227C68.3515 3.72745 70.3533 4.61794 73.1963 7.32727C77.4363 11.2159 81.8218 14.7805 86.4463 18.2023C86.9851 18.6406 87.5239 19.0788 88.0791 19.5304C93.7972 23.6106 100.761 23.1048 107.446 22.2023C115.88 19.7413 122.454 15.7882 129.067 10.1007C141.979 -0.202938 159.395 -0.657273 172.946 9.07727Z" fill="#020202"/>
<path d="M23.4463 31.2021C25.6771 33.4329 25.8644 34.2858 26.4893 37.2881C26.6724 38.1269 26.8556 38.9658 27.0442 39.8301C27.2388 40.7366 27.4334 41.6431 27.6338 42.5771C29.3558 50.1974 31.403 57.5858 34.0088 64.9521C34.2894 65.748 34.5701 66.5438 34.8592 67.3638C37.4574 74.5391 40.1677 81.7564 44.5088 88.0771C44.9948 88.7964 45.4808 89.5157 45.9815 90.2568C47.3901 92.2318 47.3901 92.2318 49.1299 93.835C50.4463 95.2021 50.4463 95.2021 50.4463 97.2021C50.9903 97.469 51.5343 97.7358 52.0948 98.0107C53.7835 98.8663 55.4536 99.759 57.1104 100.675C63.634 104.178 69.0083 106.169 76.4463 106.202C76.4463 106.532 76.4463 106.862 76.4463 107.202C33.8398 114.157 33.8398 114.157 22.4463 106.202C10.7903 91.9955 11.0632 73.5904 12.4463 56.2021C13.1798 51.3211 14.5689 46.7655 16.4463 42.2021C16.766 41.3295 17.0857 40.4568 17.4151 39.5576C18.8932 36.1815 21.0138 33.9548 23.4463 31.2021Z" fill="#1B1B1B"/>
<path d="M217.446 188.202C217.776 188.202 218.106 188.202 218.446 188.202C218.446 189.852 218.446 191.502 218.446 193.202C212.011 193.697 212.011 193.697 205.446 194.202C205.292 196.337 205.292 196.337 205.134 198.515C204.948 201.079 204.768 202.717 203.341 204.87C195.865 210.126 184.617 208.888 176.028 207.749C173.484 207.288 170.964 206.788 168.446 206.202C168.116 206.862 167.786 207.522 167.446 208.202C166.621 207.563 165.796 206.923 164.946 206.265C161.163 203.731 157.962 203.424 153.446 203.202C152.456 203.532 151.466 203.862 150.446 204.202C150.446 203.542 150.446 202.882 150.446 202.202C144.245 202.912 138.044 203.627 131.845 204.351C127.102 204.902 122.358 205.428 117.61 205.929C103.057 207.46 103.057 207.46 88.997 211.335C83.7299 213.126 78.6083 213.323 73.079 213.3C72.0597 213.298 72.0597 213.298 71.0197 213.296C68.8701 213.29 66.7207 213.277 64.5712 213.265C63.1051 213.26 61.6389 213.255 60.1728 213.251C56.5972 213.24 53.0217 213.223 49.4462 213.202C49.8576 214.277 49.8576 214.277 50.2773 215.373C52.2082 220.526 53.9234 225.416 54.6962 230.89C54.8458 231.904 54.9953 232.919 55.1493 233.964C55.2963 235.072 55.2963 235.072 55.4462 236.202C54.4562 236.202 53.4662 236.202 52.4462 236.202C50.8608 234.241 49.5614 232.404 48.2587 230.265C47.8965 229.677 47.5343 229.09 47.1611 228.485C44.2018 223.386 43.6663 219.954 44.4462 214.202C43.4562 214.202 42.4662 214.202 41.4462 214.202C40.9097 211.705 40.3919 209.205 39.8837 206.702C39.6565 205.658 39.6565 205.658 39.4247 204.593C38.4082 199.486 38.573 195.338 39.4462 190.202C40.1062 190.202 40.7662 190.202 41.4462 190.202C42.1062 197.132 42.7662 204.062 43.4462 211.202C52.655 210.123 61.8633 209.039 71.0712 207.952C72.0936 207.831 72.0936 207.831 73.1365 207.708C95.7792 205.044 95.7792 205.044 118.384 202.077C130.197 200.443 142.033 199.09 153.884 197.765C167.922 196.19 181.956 194.589 195.973 192.838C197.696 192.623 199.42 192.412 201.144 192.204C203.519 191.916 205.893 191.617 208.267 191.315C208.97 191.232 209.673 191.149 210.397 191.063C214.349 190.592 214.349 190.592 217.446 188.202Z" fill="#030311"/>
<path d="M226.446 87.2021C227.106 87.2021 227.766 87.2021 228.446 87.2021C229.771 88.5576 229.771 88.5576 231.134 90.3896C231.82 91.2772 231.82 91.2772 232.521 92.1826C233.446 94.2021 233.446 94.2021 233.442 96.6592C232.041 100.237 229.941 101.504 226.821 103.702C226.279 104.092 225.736 104.481 225.177 104.882C223.61 106.003 222.029 107.103 220.446 108.202C213.491 112.967 213.491 112.967 210.411 120.589C210.242 121.445 210.072 122.302 209.897 123.185C209.728 124.077 209.558 124.97 209.384 125.89C209.124 127.2 209.124 127.2 208.858 128.536C207.843 133.745 207.042 138.929 206.446 144.202C205.786 144.202 205.126 144.202 204.446 144.202C204.025 143.348 203.603 142.493 203.169 141.612C202.621 140.508 202.073 139.403 201.509 138.265C200.964 137.163 200.418 136.06 199.856 134.925C198.699 132.354 198.699 132.354 197.446 131.202C196.981 129.02 196.55 126.831 196.134 124.64C194.19 115.317 194.19 115.317 188.821 107.62C187.446 106.202 187.446 106.202 187.446 104.202C195.116 104.632 202.105 105.944 209.446 108.202C209.116 107.212 208.786 106.222 208.446 105.202C209.327 104.406 210.207 103.609 211.114 102.788C212.288 101.718 213.461 100.648 214.634 99.5771C215.212 99.0551 215.79 98.533 216.386 97.9951C219.223 95.3983 221.841 92.8096 224.247 89.8037C224.973 88.9452 225.699 88.0867 226.446 87.2021Z" fill="#171717"/>
<path d="M65.4463 0.202006C69.9585 2.13055 73.0276 4.46213 76.5088 7.88951C85.9661 16.6772 85.9661 16.6772 97.626 21.6473C99.7905 21.4946 101.42 20.9833 103.446 20.202C104.324 19.9184 105.202 19.6348 106.106 19.3426C113.037 16.8223 118.57 13.1685 124.423 8.80601C134.247 1.53992 143.253 -0.742077 155.446 0.202006C167.43 2.59328 175.975 7.62346 183.446 17.202C184.003 16.4389 184.56 15.6758 185.134 14.8895C187.984 11.5768 190.13 9.55379 194.556 8.88169C200.046 8.60535 203.234 9.4477 207.446 13.202C211.411 17.6013 214.631 21.1973 215.446 27.202C213.184 25.0534 211.376 22.8057 209.571 20.2645C206.088 15.62 206.088 15.62 201.446 12.202C198.007 11.6423 198.007 11.6423 194.446 13.202C191.483 15.9784 188.937 18.9997 186.446 22.202C185.456 21.212 185.456 21.212 184.446 20.202C183.456 20.532 182.466 20.862 181.446 21.202C181.116 20.3564 180.786 19.5108 180.446 18.6395C175.137 9.51406 167.154 6.38749 157.38 3.61607C147.045 1.40285 138.48 5.23116 129.841 10.5926C127.656 12.0611 125.622 13.617 123.571 15.2645C115.471 21.4042 106.927 24.1792 96.7588 23.7333C87.9562 22.3215 81.8693 16.1089 75.731 10.0738C72.5538 6.98977 69.644 4.68452 65.4463 3.20201C60.7408 4.06657 58.7543 6.88901 55.9463 10.577C48.824 19.8811 48.824 19.8811 43.5518 20.5926C42.1074 20.523 42.1074 20.523 40.6338 20.452C39.658 20.4159 38.6821 20.3798 37.6768 20.3426C36.9407 20.2962 36.2046 20.2498 35.4463 20.202C35.4463 19.872 35.4463 19.542 35.4463 19.202C37.1064 18.8114 38.7666 18.4208 40.4268 18.0301C45.3008 16.0315 48.3972 12.2408 51.5088 8.13951C55.6139 2.73382 58.2996 -0.655594 65.4463 0.202006Z" fill="#E1DBEA"/>
<path d="M205.446 198.202C205.776 198.202 206.106 198.202 206.446 198.202C206.612 206.468 206.185 214.497 205.196 222.702C205.061 223.829 204.926 224.955 204.787 226.115C200.118 263.496 200.118 263.496 189.446 276.202C188.057 278.192 186.683 280.193 185.321 282.202C173.455 299.435 159.705 319.302 138.446 325.202C125.432 326.903 114.834 321.482 104.446 314.202C105.436 313.707 105.436 313.707 106.446 313.202C108.826 314.258 111.089 315.361 113.384 316.577C122.284 321.213 130.421 322.965 140.45 320.448C145.003 318.718 148.213 316.914 151.446 313.202C152.543 312.585 152.543 312.585 153.661 311.956C157.145 309.762 159.82 307.127 162.696 304.202C163.265 303.628 163.833 303.055 164.419 302.463C169.458 297.312 174.045 291.912 178.446 286.202C178.994 285.522 179.542 284.841 180.106 284.14C182.174 281.468 183.397 279.665 183.759 276.265C183.656 275.584 183.553 274.903 183.446 274.202C190.196 270.202 190.196 270.202 192.446 270.202C192.423 269.599 192.4 268.996 192.376 268.374C192.358 267.575 192.34 266.776 192.321 265.952C192.298 265.163 192.275 264.374 192.251 263.562C192.463 260.995 193.16 259.411 194.446 257.202C195.106 257.202 195.766 257.202 196.446 257.202C196.521 256.242 196.521 256.242 196.598 255.262C196.831 252.345 197.076 249.43 197.321 246.515C197.4 245.507 197.479 244.5 197.56 243.462C197.685 241.997 197.685 241.997 197.813 240.503C197.887 239.607 197.96 238.712 198.036 237.789C198.475 235.021 199.397 232.794 200.446 230.202C200.777 228.457 201.047 226.7 201.263 224.937C201.387 223.965 201.511 222.993 201.64 221.991C201.761 220.988 201.883 219.985 202.009 218.952C202.256 216.946 202.507 214.941 202.763 212.937C202.87 212.052 202.978 211.167 203.089 210.256C203.446 208.202 203.446 208.202 204.446 207.202C204.678 205.687 204.858 204.165 205.009 202.64C205.134 201.4 205.134 201.4 205.263 200.136C205.323 199.498 205.384 198.86 205.446 198.202Z" fill="#06070D"/>
<path d="M39.4462 190.202C40.1062 190.202 40.7662 190.202 41.4462 190.202C42.1062 197.132 42.7662 204.062 43.4462 211.202C51.9678 210.203 60.4891 209.201 69.0099 208.195C70.3798 208.034 71.7497 207.872 73.1196 207.711C90.1789 205.698 107.236 203.686 124.244 201.27C129.018 200.6 133.609 199.994 138.446 200.202C138.116 201.192 137.786 202.182 137.446 203.202C135.822 203.398 135.822 203.398 134.164 203.598C130.083 204.093 126.004 204.603 121.925 205.119C120.171 205.338 118.417 205.553 116.662 205.764C107.197 206.904 98.2122 208.17 89.1794 211.326C83.7945 213.052 78.7099 213.323 73.079 213.3C72.0597 213.298 72.0597 213.298 71.0197 213.296C68.8701 213.29 66.7207 213.277 64.5712 213.265C63.1051 213.26 61.6389 213.255 60.1728 213.251C56.5972 213.24 53.0217 213.223 49.4462 213.202C49.8576 214.277 49.8576 214.277 50.2773 215.373C52.2082 220.526 53.9234 225.416 54.6962 230.89C54.8458 231.904 54.9953 232.919 55.1493 233.964C55.2963 235.072 55.2963 235.072 55.4462 236.202C54.4562 236.202 53.4662 236.202 52.4462 236.202C50.8608 234.241 49.5614 232.404 48.2587 230.265C47.8965 229.677 47.5343 229.09 47.1611 228.485C44.2018 223.386 43.6663 219.954 44.4462 214.202C43.4562 214.202 42.4662 214.202 41.4462 214.202C40.9097 211.705 40.3919 209.205 39.8837 206.702C39.7323 206.006 39.5808 205.31 39.4247 204.593C38.4082 199.486 38.573 195.338 39.4462 190.202Z" fill="#07070A"/>
<path d="M18.4461 17.2017C21.363 17.1476 24.279 17.108 27.1961 17.0767C28.0211 17.0599 28.8461 17.0431 29.6961 17.0259C30.4954 17.0194 31.2946 17.013 32.118 17.0063C32.8512 16.9959 33.5843 16.9854 34.3397 16.9746C36.7451 17.2339 38.3587 18.0094 40.4461 19.2017C35.0735 20.05 30.8563 20.1204 25.4461 19.2017C23.7961 19.2017 22.1461 19.2017 20.4461 19.2017C21.4361 22.5017 22.4261 25.8017 23.4461 29.2017C22.7036 29.7598 21.9611 30.318 21.1961 30.8931C10.4131 39.9453 5.39732 53.595 3.44614 67.2017C2.29 82.539 1.55063 99.0438 11.7938 111.581C13.4876 113.242 15.1818 114.395 17.1961 115.639C19.2546 116.986 20.2825 117.71 21.0692 120.076C21.2403 121.151 21.2403 121.151 21.4149 122.249C22.417 127.449 24.1894 132.126 26.1961 137.014C26.551 137.891 26.9059 138.769 27.2716 139.673C29.6136 145.386 32.2126 150.899 35.0555 156.381C42.0149 170.496 42.0149 170.496 40.4461 175.202C39.4561 175.532 38.4661 175.862 37.4461 176.202C37.4925 176.836 37.5389 177.47 37.5868 178.124C37.9862 188.452 35.6845 198.171 33.4461 208.202C31.4461 206.202 31.4461 206.202 31.3993 204.319C31.8876 200.631 32.4539 197.174 33.4461 193.577C35.1572 187.32 35.1269 180.653 35.4461 174.202C36.7661 174.202 38.0861 174.202 39.4461 174.202C37.8898 170.407 36.3249 166.617 34.7586 162.827C34.3236 161.766 33.8885 160.705 33.4403 159.612C31.3821 154.642 29.2727 149.755 26.8172 144.967C24.5489 140.529 22.7913 136.044 21.1961 131.327C20.9409 130.594 20.6857 129.862 20.4227 129.108C18.5591 123.713 18.5591 123.713 17.9713 121.051C17.2425 118.484 15.9943 117.965 13.7586 116.577C6.11304 111.082 2.71121 103.137 0.914885 94.0806C-1.52972 73.8514 0.457596 53.3792 12.6219 36.5181C14.3167 34.366 16.113 32.4253 18.0086 30.4517C19.5037 28.8783 19.5037 28.8783 20.4461 27.2017C19.9585 23.9885 19.9585 23.9885 18.4461 21.2017C18.4461 19.8817 18.4461 18.5617 18.4461 17.2017Z" fill="#E2DED1"/>
<path d="M151.446 150.202C152.992 150.113 154.535 149.957 156.071 149.764C163.853 148.947 171.633 149.119 179.446 149.202C178.786 150.192 178.126 151.182 177.446 152.202C177.941 153.192 177.941 153.192 178.446 154.202C176.136 154.862 173.826 155.522 171.446 156.202C176.726 156.202 182.006 156.202 187.446 156.202C183.879 158.58 181.433 158.795 177.196 159.327C175.27 159.578 175.27 159.578 173.306 159.834C169.657 160.182 166.109 160.268 162.446 160.202C163.106 159.872 163.766 159.542 164.446 159.202C160.666 159.202 157.676 160.353 154.114 161.545C151.446 162.202 151.446 162.202 145.446 162.202C145.116 158.242 144.786 154.282 144.446 150.202C148.446 149.202 148.446 149.202 151.446 150.202Z" fill="#1C1C1B"/>
<path d="M131.446 208.202C133.43 211.178 134.045 213.051 134.849 216.479C135.098 217.539 135.347 218.599 135.604 219.69C136.922 225.52 138.207 231.355 139.446 237.202C139.634 238.066 139.822 238.929 140.016 239.819C144.681 261.965 144.782 288.191 139.446 310.202C139.116 310.202 138.786 310.202 138.446 310.202C138.455 309.628 138.464 309.053 138.473 308.461C139.09 269.15 139.09 269.15 134.446 230.202C133.984 227.481 133.537 224.757 133.092 222.032C132.84 220.511 132.581 218.99 132.31 217.471C131.745 214.292 131.446 211.452 131.446 208.202Z" fill="#010209"/>
<path d="M31.4463 206.202C31.7763 206.202 32.1063 206.202 32.4463 206.202C32.5559 207.071 32.6654 207.94 32.7783 208.835C34.1252 218.624 36.3311 226.191 44.2197 232.655C46.9743 234.678 49.1765 236.112 52.4463 237.202C53.2424 239.357 53.2424 239.357 53.8408 242.206C54.0712 243.25 54.3015 244.294 54.5388 245.369C54.8952 247.05 54.8952 247.05 55.2588 248.765C57.8253 260.167 60.807 271.034 66.1221 281.503C67.4463 284.202 67.4463 284.202 67.4463 286.202C68.2893 286.552 68.2893 286.552 69.1494 286.909C72.0136 288.522 73.9188 290.522 76.1963 292.89C88.321 305.226 101.85 315.588 117.446 323.202C114.446 324.202 114.446 324.202 111.731 323.085C96.2426 314.636 83.3824 303.479 71.1182 290.886C69.7291 289.487 68.253 288.175 66.7588 286.89C57.393 276.005 50.7079 252.601 51.4463 238.202C50.7244 238.118 50.0025 238.035 49.2588 237.948C43.099 236.314 38.3627 230.817 34.6885 225.804C31.045 219.37 30.8846 213.467 31.4463 206.202Z" fill="#DEDACD"/>
<path d="M200.446 250.202C200.776 250.202 201.106 250.202 201.446 250.202C200.838 262.373 195.607 271.622 188.446 281.202C187.658 282.316 186.873 283.432 186.091 284.55C173.935 301.911 160.023 321.462 138.446 327.202C130.686 327.958 123.839 327.559 116.446 325.202C116.941 324.212 116.941 324.212 117.446 323.202C118.446 323.44 118.446 323.44 119.466 323.683C132.48 325.951 142.907 324.154 153.821 316.702C175.136 300.35 192.565 275.827 200.446 250.202Z" fill="#D9D3DD"/>
<path d="M172.696 145.827C173.936 145.807 173.936 145.807 175.201 145.786C181.982 145.835 188.542 146.878 193.946 151.202C195.446 153.202 195.446 153.202 196.446 156.202C193.159 157.002 191.736 157.299 188.446 156.202C188.446 156.862 188.446 157.522 188.446 158.202C187.871 158.039 187.296 157.876 186.703 157.708C184.489 157.212 182.6 157.087 180.337 157.104C179.206 157.109 179.206 157.109 178.052 157.114C177.274 157.123 176.497 157.131 175.696 157.14C174.904 157.144 174.111 157.149 173.294 157.153C171.345 157.165 169.395 157.183 167.446 157.202C170.731 155.012 173.653 154.204 177.446 153.202C177.446 152.212 177.446 151.222 177.446 150.202C168.372 150.091 159.484 150.26 150.446 151.202C150.116 150.542 149.786 149.882 149.446 149.202C157.249 146.81 164.571 145.882 172.696 145.827Z" fill="#10100F"/>
<path d="M142.446 0.201936C155.402 -0.561441 167.339 1.57633 177.446 10.2019C179.624 12.4474 181.518 14.7293 183.446 17.2019C184.003 16.4388 184.56 15.6757 185.134 14.8894C187.984 11.5767 190.13 9.55372 194.556 8.88162C200.046 8.60528 203.234 9.44763 207.446 13.2019C211.411 17.6012 214.631 21.1973 215.446 27.2019C213.184 25.0533 211.376 22.8057 209.571 20.2644C206.088 15.6199 206.088 15.6199 201.446 12.2019C198.007 11.6422 198.007 11.6422 194.446 13.2019C191.483 15.9783 188.937 18.9996 186.446 22.2019C185.786 21.5419 185.126 20.8819 184.446 20.2019C183.456 20.5319 182.466 20.8619 181.446 21.2019C180.951 19.9335 180.951 19.9335 180.446 18.6394C175.573 10.2642 168.519 6.82235 159.446 4.20194C158.817 4.00471 158.188 3.80748 157.54 3.60428C154.576 3.03469 151.711 3.10929 148.696 3.13944C146.941 3.15297 146.941 3.15297 145.149 3.16678C144.257 3.17838 143.365 3.18998 142.446 3.20194C142.446 2.21194 142.446 1.22194 142.446 0.201936Z" fill="#DCD7DC"/>
<path d="M124.446 162.202C124.116 162.862 123.786 163.522 123.446 164.202C122.895 164.132 122.344 164.062 121.776 163.989C116.485 163.353 111.292 163.042 105.966 163.034C105.191 163.031 104.415 163.028 103.616 163.024C101.987 163.019 100.358 163.017 98.7283 163.017C96.2819 163.015 93.836 162.997 91.3896 162.978C77.2393 162.689 77.2393 162.689 63.4463 165.202C62.0176 167.166 62.0176 167.166 61.4463 169.202C61.4463 167.552 61.4463 165.902 61.4463 164.202C78.1392 156.235 107.298 153.628 124.446 162.202Z" fill="#060504"/>
<path d="M162.446 304.202C163.106 305.522 163.766 306.842 164.446 308.202C157.389 316.414 146.822 324.107 135.876 325.538C123.631 325.725 114.316 321.119 104.446 314.202C105.106 313.872 105.766 313.542 106.446 313.202C108.826 314.258 111.089 315.361 113.384 316.577C122.284 321.213 130.421 322.965 140.45 320.448C145.003 318.718 148.213 316.914 151.446 313.202C152.23 312.748 153.014 312.295 153.821 311.827C157.25 309.705 159.662 307.116 162.446 304.202Z" fill="#060509"/>
<path d="M18.4461 17.2017C21.363 17.1476 24.2789 17.108 27.1961 17.0767C28.0211 17.0599 28.8461 17.0431 29.6961 17.0259C30.4953 17.0194 31.2945 17.013 32.118 17.0063C32.8511 16.9959 33.5843 16.9854 34.3397 16.9746C36.7451 17.2339 38.3586 18.0094 40.4461 19.2017C35.0735 20.05 30.8562 20.1204 25.4461 19.2017C23.7961 19.2017 22.1461 19.2017 20.4461 19.2017C21.4361 22.5017 22.4261 25.8017 23.4461 29.2017C22.7036 29.7598 21.9611 30.318 21.1961 30.8931C10.6635 39.7351 4.91291 53.721 3.4461 67.2017C3.18771 71.3323 2.99157 75.4655 2.87481 79.6025C2.84678 80.3958 2.81874 81.1891 2.78985 82.0063C2.77116 82.7177 2.75247 83.4292 2.73321 84.1621C2.40444 86.4976 1.59712 88.1575 0.446102 90.2017C-0.151291 68.9988 0.977326 48.5211 16.3016 32.229C16.8649 31.6425 17.4282 31.056 18.0086 30.4517C19.5037 28.8783 19.5037 28.8783 20.4461 27.2017C19.9585 23.9885 19.9585 23.9885 18.4461 21.2017C18.4461 19.8817 18.4461 18.5617 18.4461 17.2017Z" fill="#D6D2C4"/>
<path d="M215.446 26.2021C218.076 28.8318 218.61 31.7304 219.634 35.2021C221.514 41.2426 223.928 45.7997 227.802 50.8545C232.278 57.2446 234.58 64.8913 234.634 72.6396C234.648 73.5665 234.662 74.4933 234.677 75.4482C234.431 78.3906 233.588 80.4991 232.446 83.2021C232.446 84.1921 232.446 85.1821 232.446 86.2021C234.419 87.5748 236.422 88.9064 238.446 90.2021C240.58 93.4027 240.912 95.3847 240.849 99.1943C240.179 102.534 238.013 104.149 235.446 106.202C236.321 102.327 236.321 102.327 237.446 101.202C237.948 97.8707 237.948 97.8707 237.446 94.2021C234.822 90.9944 231.827 88.5811 228.446 86.2021C228.756 85.439 229.065 84.6759 229.384 83.8896C232.796 75.2587 232.151 67.4468 228.72 58.8936C227.019 55.2995 225.004 51.9676 222.896 48.6006C218.848 41.9026 216.516 34.711 214.446 27.2021C214.776 26.8721 215.106 26.5421 215.446 26.2021Z" fill="#D5CDE6"/>
<path d="M205.446 198.202C205.776 198.202 206.106 198.202 206.446 198.202C206.612 206.468 206.183 214.496 205.196 222.702C205.064 223.822 204.932 224.942 204.796 226.096C203.299 238.224 201.584 250.652 197.446 262.202C196.786 262.202 196.126 262.202 195.446 262.202C195.592 261.082 195.738 259.962 195.888 258.808C196.279 255.689 196.615 252.57 196.911 249.44C196.989 248.632 197.067 247.823 197.147 246.989C197.306 245.328 197.46 243.667 197.608 242.005C197.688 241.2 197.767 240.395 197.849 239.565C197.916 238.847 197.983 238.128 198.052 237.387C198.446 235.202 198.446 235.202 199.433 232.759C200.49 230.093 200.915 227.777 201.263 224.937C201.387 223.965 201.511 222.993 201.64 221.991C201.761 220.988 201.883 219.985 202.009 218.952C202.256 216.946 202.507 214.941 202.763 212.937C202.87 212.052 202.978 211.167 203.089 210.256C203.446 208.202 203.446 208.202 204.446 207.202C204.678 205.687 204.858 204.165 205.009 202.64C205.093 201.813 205.176 200.987 205.263 200.136C205.323 199.498 205.384 198.86 205.446 198.202Z" fill="#03030F"/>
<path d="M37.4461 200.202C38.1061 200.202 38.7661 200.202 39.4461 200.202C39.7827 201.972 40.1153 203.743 40.4461 205.515C40.6317 206.501 40.8174 207.487 41.0086 208.503C41.4461 211.202 41.4461 211.202 41.4461 214.202C42.4361 214.202 43.4261 214.202 44.4461 214.202C44.4874 215.502 44.5286 216.801 44.5711 218.14C45.0844 223.216 47.1811 226.29 50.2664 230.257C50.6557 230.899 51.045 231.541 51.4461 232.202C51.1161 233.192 50.7861 234.182 50.4461 235.202C44.0017 230.176 38.6522 225.284 36.4461 217.202C35.3554 204.384 35.3554 204.384 37.4461 200.202Z" fill="#FCBD76"/>
<path d="M200.446 195.202C200.097 197.786 199.801 199.711 198.259 201.847C195.716 203.748 193.907 203.575 190.755 203.565C189.646 203.565 188.536 203.564 187.394 203.563C185.656 203.539 185.656 203.539 183.884 203.515C182.722 203.518 181.56 203.521 180.362 203.524C171.713 203.469 171.713 203.469 169.446 201.202C178.929 196.294 189.869 195.202 200.446 195.202Z" fill="#E1AB72"/>
<path d="M145.446 1.20199C142.251 3.77058 138.904 5.58802 135.259 7.45199C131.128 9.63246 127.461 11.8264 123.884 14.827C117.391 20.1335 109.908 23.6157 101.446 23.202C101.116 22.542 100.786 21.882 100.446 21.202C101.315 20.8875 102.184 20.5729 103.079 20.2489C108.993 18.0525 114.379 16.0309 119.446 12.202C135.518 0.356997 135.518 0.356997 145.446 1.20199Z" fill="#E1DDCF"/>
<path d="M57.4463 8.20215C57.4463 11.8304 56.4194 13.5288 54.6963 16.7021C54.1858 17.6612 53.6754 18.6203 53.1494 19.6084C50.7354 23.2848 48.5922 24.8202 44.4463 26.2021C37.8342 27.0118 32.9344 24.6716 27.4463 21.2021C27.1163 20.5421 26.7863 19.8821 26.4463 19.2021C27.0155 19.2336 27.5847 19.265 28.1711 19.2974C30.7833 19.4231 33.3948 19.5004 36.0088 19.5771C37.3517 19.6526 37.3517 19.6526 38.7217 19.7295C43.607 19.8369 46.6359 19.5807 50.4463 16.3584C53.0117 13.8275 55.3105 11.1068 57.4463 8.20215Z" fill="#070504"/>
<path d="M201.446 193.202C201.116 193.862 200.786 194.522 200.446 195.202C197.892 195.764 197.892 195.764 194.571 196.202C193.396 196.368 192.22 196.535 191.009 196.706C189.833 196.87 188.658 197.033 187.446 197.202C179.853 198.287 179.853 198.287 172.696 200.889C168.814 202.457 166.477 202.107 162.446 201.202C162.446 199.882 162.446 198.562 162.446 197.202C167.517 196.463 172.589 195.733 177.662 195.011C179.388 194.764 181.114 194.515 182.839 194.263C185.318 193.901 187.798 193.549 190.278 193.198C191.436 193.026 191.436 193.026 192.618 192.851C195.978 192.384 198.182 192.114 201.446 193.202Z" fill="#0B0A0A"/>
<path d="M167.446 150.202C170.746 150.202 174.046 150.202 177.446 150.202C177.776 151.522 178.106 152.842 178.446 154.202C176.136 154.862 173.826 155.522 171.446 156.202C176.726 156.202 182.006 156.202 187.446 156.202C183.879 158.581 181.433 158.795 177.196 159.327C175.912 159.495 174.628 159.662 173.306 159.835C169.657 160.182 166.109 160.269 162.446 160.202C163.106 159.872 163.766 159.542 164.446 159.202C163.67 156.128 163.67 156.128 161.446 154.202C163.426 153.542 165.406 152.882 167.446 152.202C167.446 151.542 167.446 150.882 167.446 150.202Z" fill="#191917"/>
<path d="M64.4463 281.202C65.9463 282.577 65.9463 282.577 67.4463 284.202C67.4463 284.862 67.4463 285.522 67.4463 286.202C68.0083 286.435 68.5704 286.669 69.1494 286.909C72.0136 288.522 73.9188 290.522 76.1963 292.89C88.321 305.226 101.85 315.588 117.446 323.202C114.446 324.202 114.446 324.202 111.731 323.085C96.2391 314.635 83.4371 303.473 71.1377 290.917C70.0618 289.826 68.967 288.753 67.8486 287.706C66.6617 286.592 65.5448 285.404 64.4463 284.202C64.4463 283.212 64.4463 282.222 64.4463 281.202Z" fill="#EAE8DE"/>
<path d="M51.4463 157.202C52.1063 157.202 52.7663 157.202 53.4463 157.202C54.1063 158.192 54.7663 159.182 55.4463 160.202C56.1063 160.532 56.7663 160.862 57.4463 161.202C58.177 163.516 58.8477 165.85 59.4463 168.202C58.4563 168.202 57.4663 168.202 56.4463 168.202C56.7131 170.187 56.7131 170.187 57.4463 172.202C58.4363 172.532 59.4263 172.862 60.4463 173.202C56.4863 173.202 52.5263 173.202 48.4463 173.202C48.9056 167.537 49.3431 162.53 51.4463 157.202Z" fill="#EFB476"/>
<path d="M200.446 250.202C200.776 250.202 201.106 250.202 201.446 250.202C200.838 262.368 195.612 271.629 188.446 281.202C186.686 283.653 184.943 286.116 183.196 288.577C180.651 292.148 178.097 295.708 175.446 299.202C174.456 298.872 173.466 298.542 172.446 298.202C172.908 297.654 173.369 297.106 173.845 296.542C179.517 289.648 184.475 282.398 189.32 274.908C190.352 273.345 191.443 271.822 192.54 270.304C194.9 266.465 196.281 262.587 197.696 258.327C197.964 257.543 198.233 256.76 198.509 255.952C199.162 254.038 199.805 252.12 200.446 250.202Z" fill="#DDD9E6"/>
<path d="M173.071 145.89C173.948 145.884 174.825 145.879 175.729 145.874C182.058 145.943 182.058 145.943 185.446 148.202C183.462 150.186 179.636 149.595 176.911 149.737C176.158 149.78 175.405 149.823 174.629 149.868C172.214 150.004 169.799 150.135 167.384 150.265C165.75 150.356 164.117 150.448 162.483 150.54C158.471 150.766 154.459 150.985 150.446 151.202C150.116 150.542 149.786 149.882 149.446 149.202C157.402 146.763 164.787 145.902 173.071 145.89Z" fill="#040303"/>
<path d="M234.446 104.202C234.776 105.192 235.106 106.182 235.446 107.202C234.016 107.987 232.577 108.754 231.134 109.515C230.333 109.944 229.533 110.373 228.708 110.815C224.131 112.761 219.245 113.893 214.446 115.202C214.116 123.782 213.786 132.362 213.446 141.202C213.116 141.202 212.786 141.202 212.446 141.202C212.446 132.292 212.446 123.382 212.446 114.202C215.746 112.882 219.046 111.562 222.446 110.202C224.475 109.324 226.498 108.432 228.509 107.515C229.428 107.098 230.347 106.682 231.294 106.253C233.376 105.381 233.376 105.381 234.446 104.202Z" fill="#C7C3D4"/>
<path d="M142.446 0.201759C155.325 -0.557077 167.423 1.52364 177.446 10.2018C178.485 11.5055 179.496 12.8325 180.446 14.2018C177.446 14.2018 177.446 14.2018 176.009 13.0299C175.493 12.5091 174.978 11.9883 174.446 11.4518C170.045 7.48185 165.054 5.87622 159.446 4.20176C158.816 4.00324 158.186 3.80473 157.536 3.6002C154.574 3.03539 151.708 3.10914 148.696 3.13926C146.941 3.15279 146.941 3.15279 145.149 3.1666C144.257 3.1782 143.365 3.18981 142.446 3.20176C142.446 2.21176 142.446 1.22176 142.446 0.201759Z" fill="#CDC6CB"/>
<path d="M26.4463 127.202C33.412 135.458 37.349 143.484 39.4463 154.202C39.1163 155.192 38.7863 156.182 38.4463 157.202C37.0033 154.205 35.5679 151.204 34.1338 148.202C33.7297 147.363 33.3255 146.524 32.9092 145.659C26.4463 132.103 26.4463 132.103 26.4463 127.202Z" fill="#080603"/>
<path d="M46.4461 218.202C47.1061 218.202 47.7661 218.202 48.4461 218.202C48.7761 218.862 49.1061 219.522 49.4461 220.202C50.1061 219.542 50.7661 218.882 51.4461 218.202C53.7109 224.026 54.5116 230.058 55.4461 236.202C54.4561 236.202 53.4661 236.202 52.4461 236.202C48.1213 230.829 46.027 225.118 46.4461 218.202Z" fill="#3F3313"/>
<path d="M205.446 210.202C207.21 213.221 207.657 215.121 207.31 218.589C207.228 219.437 207.147 220.286 207.063 221.16C206.963 222.061 206.862 222.962 206.759 223.89C206.664 224.814 206.568 225.739 206.47 226.691C205.539 235.272 204.111 243.737 202.446 252.202C201.786 251.542 201.126 250.882 200.446 250.202C200.463 248.349 200.463 248.349 200.837 246.081C201.035 244.814 201.035 244.814 201.236 243.521C201.388 242.612 201.54 241.702 201.696 240.765C201.992 238.867 202.285 236.968 202.575 235.069C202.724 234.1 202.872 233.13 203.025 232.131C203.682 227.563 204.17 222.981 204.634 218.39C204.759 217.154 204.759 217.154 204.887 215.894C205.077 213.997 205.262 212.1 205.446 210.202Z" fill="#C9C3D6"/>
<path d="M196.446 141.202C196.776 141.202 197.106 141.202 197.446 141.202C198.709 146.277 199.717 150.93 199.446 156.202C198.126 155.872 196.806 155.542 195.446 155.202C195.323 154.274 195.323 154.274 195.196 153.327C194.647 151.052 194.647 151.052 192.571 150.077C191.519 149.644 191.519 149.644 190.446 149.202C189.456 148.542 188.466 147.882 187.446 147.202C188.56 146.893 189.674 146.583 190.821 146.265C194.241 145.379 194.241 145.379 196.446 144.202C196.446 143.212 196.446 142.222 196.446 141.202Z" fill="#E4AD73"/>
<path d="M37.4463 200.202C38.1063 200.202 38.7663 200.202 39.4463 200.202C39.7829 201.972 40.1155 203.743 40.4463 205.515C40.6319 206.501 40.8175 207.487 41.0088 208.503C41.4463 211.202 41.4463 211.202 41.4463 214.202C42.4363 214.202 43.4263 214.202 44.4463 214.202C44.4463 216.842 44.4463 219.482 44.4463 222.202C44.1163 222.202 43.7863 222.202 43.4463 222.202C43.4463 219.892 43.4463 217.582 43.4463 215.202C41.1363 214.872 38.8263 214.542 36.4463 214.202C36.4193 212.244 36.3999 210.286 36.3838 208.327C36.3722 207.237 36.3606 206.146 36.3486 205.022C36.4463 202.202 36.4463 202.202 37.4463 200.202Z" fill="#E2AC6D"/>
<path d="M39.4462 190.202C40.1062 190.202 40.7662 190.202 41.4462 190.202C41.4963 190.833 41.5464 191.464 41.5981 192.114C41.8294 194.957 42.0751 197.798 42.3212 200.64C42.3999 201.633 42.4785 202.626 42.5595 203.649C42.6433 204.594 42.7271 205.538 42.8134 206.511C42.8867 207.385 42.96 208.26 43.0356 209.161C43.1711 209.835 43.3066 210.508 43.4462 211.202C44.1062 211.532 44.7662 211.862 45.4462 212.202C45.1162 212.862 44.7862 213.522 44.4462 214.202C43.4562 214.202 42.4662 214.202 41.4462 214.202C40.9097 211.705 40.3919 209.205 39.8837 206.702C39.7323 206.006 39.5808 205.31 39.4247 204.593C38.4082 199.486 38.573 195.338 39.4462 190.202Z" fill="#100F0C"/>
<path d="M187.196 150.827C190.914 150.841 191.371 151.139 194.446 153.702C195.106 154.527 195.766 155.352 196.446 156.202C193.159 157.002 191.736 157.299 188.446 156.202C188.446 156.862 188.446 157.522 188.446 158.202C187.951 158.058 187.456 157.913 186.946 157.765C183.469 156.982 179.987 156.615 176.446 156.202C176.446 155.872 176.446 155.542 176.446 155.202C178.756 155.202 181.066 155.202 183.446 155.202C183.116 154.212 182.786 153.222 182.446 152.202C183.446 151.202 183.446 151.202 187.196 150.827Z" fill="#161514"/>
<path d="M31.4463 206.202C31.7763 206.202 32.1063 206.202 32.4463 206.202C32.5559 207.071 32.6654 207.94 32.7783 208.835C34.0085 217.776 35.6895 224.791 42.4463 231.202C45.3605 233.347 48.3638 235.308 51.4463 237.202C49.8213 238.007 49.8213 238.007 47.4463 238.202C45.2064 236.65 43.3984 235.189 41.4463 233.327C40.911 232.82 40.3757 232.314 39.8242 231.792C33.5346 225.608 31.2796 220.531 31.1963 211.64C31.2597 209.826 31.336 208.013 31.4463 206.202Z" fill="#E6E4DB"/>
<path d="M188.446 274.202C188.776 274.862 189.106 275.522 189.446 276.202C188.843 277.071 188.24 277.94 187.618 278.835C186.811 279.999 186.004 281.163 185.196 282.327C184.801 282.897 184.405 283.467 183.997 284.054C181.439 287.744 178.926 291.459 176.446 295.202C175.786 293.882 175.126 292.562 174.446 291.202C178.758 285.263 183.246 279.403 188.446 274.202Z" fill="#0D0E19"/>
<path d="M23.4463 31.2021C24.4463 33.2021 24.4463 33.2021 23.5713 36.0771C23.2 37.1084 22.8288 38.1396 22.4463 39.2021C21.6355 42.1752 21.0344 45.1777 20.4463 48.2021C19.7863 48.2021 19.1263 48.2021 18.4463 48.2021C18.4463 47.5421 18.4463 46.8821 18.4463 46.2021C17.7863 46.2021 17.1263 46.2021 16.4463 46.2021C16.1163 46.8621 15.7863 47.5221 15.4463 48.2021C16.4733 40.8417 18.598 36.6884 23.4463 31.2021Z" fill="#202020"/>
<path d="M61.0713 1.07715C62.7419 1.13902 62.7419 1.13902 64.4463 1.20215C64.4463 1.53215 64.4463 1.86215 64.4463 2.20215C62.9922 2.35684 62.9922 2.35684 61.5088 2.51465C56.3164 3.94704 53.7722 8.25654 50.6572 12.3779C44.7557 19.9165 44.7557 19.9165 41.208 20.6904C39.2874 20.5277 37.3669 20.3649 35.4463 20.2021C35.4463 19.8721 35.4463 19.5421 35.4463 19.2021C37.1064 18.8115 38.7666 18.4209 40.4268 18.0303C45.3217 16.023 48.4739 12.1721 51.6338 8.07715C56.9554 1.21908 56.9554 1.21908 61.0713 1.07715Z" fill="#E8E5D8"/>
<path d="M36.4463 179.202C36.7763 179.202 37.1063 179.202 37.4463 179.202C37.6685 186.028 36.8927 192.104 35.4463 198.765C35.2555 199.678 35.0647 200.591 34.8682 201.532C34.4022 203.757 33.9281 205.98 33.4463 208.202C31.4463 206.202 31.4463 206.202 31.3994 204.319C31.9898 199.861 32.795 195.6 33.9736 191.261C34.677 188.197 34.9373 185.115 35.2002 181.987C35.4463 180.202 35.4463 180.202 36.4463 179.202Z" fill="#CEC9B6"/>
<path d="M179.884 156.077C180.981 156.09 180.981 156.09 182.101 156.104C183.883 156.128 185.665 156.163 187.446 156.202C183.879 158.58 181.433 158.795 177.196 159.327C175.912 159.495 174.628 159.662 173.306 159.835C169.657 160.182 166.109 160.268 162.446 160.202C167.051 155.597 173.769 155.931 179.884 156.077Z" fill="#CD9E6D"/>
<path d="M200.446 250.202C200.776 250.202 201.106 250.202 201.446 250.202C200.99 259.327 198.276 268.025 192.446 275.202C191.456 274.872 190.466 274.542 189.446 274.202C190.052 273.51 190.658 272.818 191.282 272.104C193.56 269.049 194.768 266.334 196.071 262.765C196.476 261.673 196.881 260.581 197.298 259.456C198.383 256.382 199.428 253.299 200.446 250.202Z" fill="#DCD6E4"/>
<path d="M67.4463 164.202C67.57 165.007 67.6938 165.811 67.8213 166.64C68.1307 167.908 68.1307 167.908 68.4463 169.202C69.1063 169.532 69.7663 169.862 70.4463 170.202C69.4563 170.202 68.4663 170.202 67.4463 170.202C67.4463 170.862 67.4463 171.522 67.4463 172.202C65.1363 172.532 62.8263 172.862 60.4463 173.202C60.1338 170.952 60.1338 170.952 60.4463 168.202C64.5544 164.202 64.5544 164.202 67.4463 164.202Z" fill="#26221E"/>
<path d="M230.446 86.2021C234.9 87.6019 237.609 89.4726 240.446 93.2021C241.161 96.028 241.186 98.3802 240.446 101.202C237.946 104.202 237.946 104.202 235.446 106.202C236.321 102.327 236.321 102.327 237.446 101.202C237.948 97.8707 237.948 97.8707 237.446 94.2021C235.154 91.4102 235.154 91.4102 232.446 89.2021C231.786 88.2121 231.126 87.2221 230.446 86.2021Z" fill="#D4CCE5"/>
<path d="M193.446 197.202C195.426 197.202 197.406 197.202 199.446 197.202C199.196 199.077 199.196 199.077 198.446 201.202C196.384 202.452 196.384 202.452 194.446 203.202C193.456 202.542 192.466 201.882 191.446 201.202C192.106 199.882 192.766 198.562 193.446 197.202Z" fill="#F7BA7B"/>
<path d="M217.446 188.202C217.776 188.202 218.106 188.202 218.446 188.202C218.446 189.852 218.446 191.502 218.446 193.202C212.011 193.697 212.011 193.697 205.446 194.202C205.776 193.542 206.106 192.882 206.446 192.202C208.442 191.64 208.442 191.64 210.884 191.202C214.585 190.58 214.585 190.58 217.446 188.202Z" fill="#0D0D0D"/>
<path d="M44.4463 223.202C45.7853 224.864 47.1176 226.532 48.4463 228.202C49.0445 228.903 49.6426 229.605 50.2588 230.327C50.6507 230.946 51.0426 231.565 51.4463 232.202C51.1163 233.192 50.7863 234.182 50.4463 235.202C44.697 230.921 44.697 230.921 43.5088 227.515C43.4463 225.202 43.4463 225.202 44.4463 223.202Z" fill="#EFB573"/>
<path d="M57.4463 143.202C59.0088 144.39 59.0088 144.39 60.4463 146.202C60.4463 148.64 60.4463 148.64 59.4463 151.202C56.8838 153.515 56.8838 153.515 54.4463 155.202C54.9543 150.884 55.6431 147.169 57.4463 143.202Z" fill="#EEB477"/>
<path d="M144.446 150.202C145.766 150.532 147.086 150.862 148.446 151.202C148.446 154.502 148.446 157.802 148.446 161.202C147.456 161.202 146.466 161.202 145.446 161.202C145.116 157.572 144.786 153.942 144.446 150.202Z" fill="#232221"/>
<path d="M155.446 315.202C155.776 316.192 156.106 317.182 156.446 318.202C154.85 319.235 153.244 320.253 151.634 321.265C150.294 322.117 150.294 322.117 148.927 322.987C146.446 324.202 146.446 324.202 143.446 323.202C147.406 320.562 151.366 317.922 155.446 315.202Z" fill="#DAD4E5"/>
<path d="M176.446 102.202C179.259 102.327 179.259 102.327 182.446 103.202C184.185 105.927 185.446 107.927 185.446 111.202C184.456 110.872 183.466 110.542 182.446 110.202C181.259 107.64 181.259 107.64 180.446 105.202C179.786 105.862 179.126 106.522 178.446 107.202C177.786 105.552 177.126 103.902 176.446 102.202Z" fill="#DBAE7D"/>
<path d="M183.446 151.202C184.106 151.532 184.766 151.862 185.446 152.202C185.446 153.192 185.446 154.182 185.446 155.202C186.436 155.202 187.426 155.202 188.446 155.202C188.446 156.192 188.446 157.182 188.446 158.202C187.951 158.058 187.456 157.913 186.946 157.765C183.469 156.982 179.987 156.615 176.446 156.202C176.446 155.872 176.446 155.542 176.446 155.202C178.756 155.202 181.066 155.202 183.446 155.202C183.116 154.212 182.786 153.222 182.446 152.202C182.776 151.872 183.106 151.542 183.446 151.202Z" fill="#251D15"/>
<path d="M16.4463 117.202C17.7663 117.532 19.0863 117.862 20.4463 118.202C21.1063 121.832 21.7663 125.462 22.4463 129.202C21.4563 129.697 21.4563 129.697 20.4463 130.202C20.1388 129.046 20.1388 129.046 19.8252 127.866C19.5558 126.863 19.2864 125.86 19.0088 124.827C18.6085 123.331 18.6085 123.331 18.2002 121.804C17.5444 119.248 17.5444 119.248 16.4463 117.202Z" fill="#D6D3C5"/>
<path d="M189.446 275.202C190.106 275.532 190.766 275.862 191.446 276.202C190.494 277.685 189.534 279.163 188.571 280.64C188.038 281.463 187.504 282.287 186.954 283.136C185.446 285.202 185.446 285.202 183.446 286.202C184.897 282.093 186.957 278.77 189.446 275.202Z" fill="#E6E0F2"/>
<path d="M185.446 148.202C187.634 147.89 187.634 147.89 190.446 148.202C193.259 150.702 193.259 150.702 195.446 153.202C195.116 153.862 194.786 154.522 194.446 155.202C193.333 154.274 193.333 154.274 192.196 153.327C189.958 151.598 188.009 150.341 185.446 149.202C185.446 148.872 185.446 148.542 185.446 148.202Z" fill="#0C0907"/>
<path d="M230.446 86.2021C234.383 87.5144 236.673 89.1213 239.446 92.2021C239.116 93.1921 238.786 94.1821 238.446 95.2021C237.869 94.4596 237.291 93.7171 236.696 92.9521C234.724 90.5413 232.686 88.3617 230.446 86.2021Z" fill="#E6E1EE"/>
<path d="M215.446 26.2021C218.398 29.154 218.533 32.1573 219.446 36.2021C218.456 36.6971 218.456 36.6971 217.446 37.2021C216.456 33.9021 215.466 30.6021 214.446 27.2021C214.776 26.8721 215.106 26.5421 215.446 26.2021Z" fill="#D3CCE2"/>
<path d="M46.4465 218.202C47.1065 218.202 47.7665 218.202 48.4465 218.202C49.1065 221.832 49.7665 225.462 50.4465 229.202C48.4465 228.202 48.4465 228.202 47.3215 225.952C46.4414 223.186 46.282 221.082 46.4465 218.202Z" fill="#B8B5B6"/>
<path d="M205.446 198.202C205.776 198.202 206.106 198.202 206.446 198.202C206.5 200.16 206.539 202.119 206.571 204.077C206.594 205.168 206.618 206.258 206.642 207.382C206.446 210.202 206.446 210.202 204.446 212.202C203.884 210.265 203.884 210.265 203.446 208.202C203.776 207.872 204.106 207.542 204.446 207.202C204.678 205.687 204.858 204.165 205.009 202.64C205.093 201.813 205.176 200.987 205.263 200.136C205.323 199.498 205.384 198.86 205.446 198.202Z" fill="#060714"/>
<path d="M179.446 14.2021C180.106 14.2021 180.766 14.2021 181.446 14.2021C182.106 15.1921 182.766 16.1821 183.446 17.2021C184.436 17.2021 185.426 17.2021 186.446 17.2021C185.071 19.2021 185.071 19.2021 183.446 21.2021C182.786 21.2021 182.126 21.2021 181.446 21.2021C180.786 18.8921 180.126 16.5821 179.446 14.2021Z" fill="#E6E1EA"/>
<path d="M209.446 17.2021C212.982 20.3754 215.032 22.3696 215.446 27.2021C212.829 24.8342 211.118 22.3061 209.446 19.2021C209.446 18.5421 209.446 17.8821 209.446 17.2021Z" fill="#E6E1EF"/>
<path d="M59.4463 0.201943C64.3229 -0.146388 67.2168 0.785086 71.4463 3.20194C70.7863 3.86194 70.1263 4.52194 69.4463 5.20194C68.7244 4.72757 68.0025 4.25319 67.2588 3.76444C64.5515 2.26041 62.4843 1.63595 59.4463 1.20194C59.4463 0.871943 59.4463 0.541943 59.4463 0.201943Z" fill="#CDCBD3"/>
<path d="M47.4463 169.202C48.1063 170.522 48.7663 171.842 49.4463 173.202C46.4463 174.202 46.4463 174.202 44.4463 174.202C44.4463 172.882 44.4463 171.562 44.4463 170.202C45.4363 169.872 46.4263 169.542 47.4463 169.202Z" fill="#261F0E"/>
<defs>
<linearGradient id="paint0_linear_436_147" x1="209.946" y1="213.702" x2="42.9463" y2="218.702" gradientUnits="userSpaceOnUse">
<stop stop-color="#430083"/>
<stop offset="1" stop-color="#0F001D"/>
</linearGradient>
</defs>
</svg>
